<svg width="64" height="64" viewBox="0 0 64 64" fill="none" xmlns="http://www.w3.org/2000/svg">
  <path d="M52 34c0-2.2-1.8-4-4-4h-1a10 10 0 0 0-19.6-3A8 8 0 1 0 20 42h28a4 4 0 0 0 4-4z" fill="#6d28d9" opacity="0.15"/>
  <path d="M52 34c0-2.2-1.8-4-4-4h-1a10 10 0 0 0-19.6-3A8 8 0 1 0 20 42h28a4 4 0 0 0 4-4z" stroke="#6d28d9" stroke-width="2.5" stroke-linecap="round" stroke-linejoin="round"/>
  <path d="M26 28c0-3 2-5.5 5-6 0 0-1 3 1 5s-1 5-3 6" stroke="#6d28d9" stroke-width="2" stroke-linecap="round" stroke-linejoin="round"/>
  <path d="M38 28c0-3-2-5.5-5-6 0 0 1 3-1 5s1 5 3 6" stroke="#6d28d9" stroke-width="2" stroke-linecap="round" stroke-linejoin="round"/>
  <path d="M32 22v16" stroke="#6d28d9" stroke-width="2" stroke-linecap="round"/>
  <circle cx="28" cy="35" r="1.5" fill="#6d28d9"/>
  <circle cx="36" cy="35" r="1.5" fill="#6d28d9"/>
  <circle cx="32" cy="31" r="1.5" fill="#6d28d9"/>
</svg>
